<svg width="26" height="21" viewBox="0 0 26 21" fill="none" xmlns="http://www.w3.org/2000/svg">
<path d="M25.7559 19.07L1.46285 0.142114C1.39622 0.0889441 1.31973 0.049375 1.23776 0.0256661C1.15578 0.00195719 1.06993 -0.00542727 0.985089 0.00393435C0.90025 0.013296 0.818093 0.0392203 0.743307 0.0802272C0.668521 0.121234 0.602572 0.176521 0.549224 0.24293L0.142986 0.748628C0.0895133 0.815061 0.0497084 0.89135 0.0258493 0.97313C0.00199021 1.05491 -0.0054547 1.14058 0.00394057 1.22523C0.0133358 1.30988 0.0393869 1.39186 0.080603 1.46646C0.121819 1.54107 0.177391 1.60684 0.24414 1.66002L24.5371 20.5879C24.6038 20.6411 24.6803 20.6806 24.7622 20.7043C24.8442 20.728 24.9301 20.7354 25.0149 20.7261C25.0998 20.7167 25.1819 20.6908 25.2567 20.6498C25.3315 20.6088 25.3974 20.5535 25.4508 20.4871L25.857 19.9814C25.9105 19.9149 25.9503 19.8386 25.9742 19.7569C25.998 19.6751 26.0055 19.5894 25.9961 19.5048C25.9867 19.4201 25.9606 19.3381 25.9194 19.2635C25.8782 19.1889 25.8226 19.1232 25.7559 19.07ZM12.0571 5.93032L17.5328 10.197C17.4426 7.77011 15.4569 5.83031 13 5.83031C12.6831 5.8309 12.3671 5.86442 12.0571 5.93032ZM13.9429 14.8001L8.4672 10.5334C8.55779 12.9599 10.5435 14.8997 13 14.8997C13.3169 14.899 13.6329 14.8656 13.9429 14.8001ZM13 4.53469C17.0075 4.53469 20.6815 6.76154 22.6656 10.365C22.1793 11.2518 21.5783 12.0713 20.8782 12.8024L22.4113 13.9968C23.2649 13.0867 23.9881 12.0633 24.5603 10.9557C24.6532 10.7725 24.7017 10.5701 24.7017 10.3648C24.7017 10.1595 24.6532 9.95708 24.5603 9.77387C22.3552 5.48981 17.9939 2.59125 13 2.59125C11.5091 2.59125 10.0869 2.87467 8.74954 3.35283L10.6349 4.82215C11.4043 4.64805 12.1924 4.53469 13 4.53469ZM13 16.1953C8.99247 16.1953 5.31886 13.9685 3.33439 10.365C3.82138 9.47817 4.42301 8.65884 5.12387 7.92801L3.59072 6.73361C2.73728 7.64357 2.01423 8.66683 1.44213 9.77428C1.3492 9.95749 1.30079 10.1599 1.30079 10.3652C1.30079 10.5705 1.3492 10.7729 1.44213 10.9561C3.64516 15.2402 8.00653 18.1388 13 18.1388C14.4909 18.1388 15.9131 17.8533 17.2505 17.3772L15.3651 15.9083C14.5957 16.0819 13.808 16.1953 13 16.1953Z" fill="#333333"/>
</svg>
