<svg width="26" height="21" viewBox="0 0 26 21" fill="none" xmlns="http://www.w3.org/2000/svg">
<path d="M25.7559 19.0741L1.46285 0.142145C1.39622 0.0889634 1.31973 0.0493858 1.23776 0.0256717C1.15578 0.00195762 1.06993 -0.00542845 0.985089 0.0039352C0.90025 0.0132989 0.818093 0.0392288 0.743307 0.0802447C0.668521 0.121261 0.602572 0.176559 0.549224 0.242983L0.142986 0.748791C0.0895133 0.815238 0.0497084 0.891543 0.0258493 0.973342C0.00199021 1.05514 -0.0054547 1.14083 0.00394057 1.2255C0.0133358 1.31017 0.0393869 1.39216 0.080603 1.46678C0.121819 1.5414 0.177391 1.60719 0.24414 1.66038L24.5371 20.5924C24.6038 20.6455 24.6803 20.6851 24.7622 20.7088C24.8442 20.7325 24.9301 20.7399 25.0149 20.7306C25.0997 20.7212 25.1819 20.6953 25.2567 20.6543C25.3315 20.6132 25.3974 20.5579 25.4508 20.4915L25.857 19.9857C25.9105 19.9193 25.9503 19.843 25.9742 19.7612C25.998 19.6794 26.0055 19.5937 25.9961 19.509C25.9867 19.4243 25.9606 19.3423 25.9194 19.2677C25.8782 19.1931 25.8226 19.1273 25.7559 19.0741ZM12.0571 5.93161L17.5328 10.1992C17.4426 7.77179 15.4569 5.83158 13 5.83158C12.6831 5.83217 12.3671 5.86569 12.0571 5.93161ZM13.9429 14.8033L8.4672 10.5357C8.55779 12.9627 10.5435 14.9029 13 14.9029C13.3169 14.9022 13.6329 14.8689 13.9429 14.8033ZM13 4.53567C17.0075 4.53567 20.6815 6.76301 22.6656 10.3673C22.1793 11.2543 21.5783 12.0739 20.8782 12.8052L22.4113 13.9998C23.2649 13.0895 23.9881 12.0659 24.5603 10.9581C24.6532 10.7749 24.7017 10.5724 24.7017 10.367C24.7017 10.1617 24.6532 9.95925 24.5603 9.77599C22.3552 5.491 17.9939 2.59181 13 2.59181C11.5091 2.59181 10.0869 2.87529 8.74954 3.35356L10.6349 4.8232C11.4043 4.64907 12.1924 4.53567 13 4.53567ZM13 16.1988C8.99247 16.1988 5.31886 13.9715 3.33439 10.3673C3.82138 9.48023 4.42301 8.66073 5.12387 7.92973L3.59072 6.73507C2.73728 7.64523 2.01423 8.66871 1.44213 9.7764C1.3492 9.95965 1.30079 10.1621 1.30079 10.3675C1.30079 10.5728 1.3492 10.7753 1.44213 10.9585C3.64516 15.2435 8.00653 18.1427 13 18.1427C14.4909 18.1427 15.9131 17.8572 17.2505 17.3809L15.3651 15.9117C14.5957 16.0854 13.808 16.1988 13 16.1988Z" fill="#333333"/>
</svg>
