<svg width="46" height="41" viewBox="0 0 46 41" fill="none" xmlns="http://www.w3.org/2000/svg">
<path d="M43.6043 39.2499C43.3622 38.1134 42.8652 36.8645 41.8763 35.8895C40.6916 34.7217 38.7607 33.923 35.6359 34.1432V34.1436C35.3426 34.1644 35.0768 34.0201 34.9535 33.7984C34.5307 33.1815 29.2655 25.8881 20.3997 31.9342L20.4005 31.9353C20.196 32.0748 19.9331 32.0979 19.7111 32.0171C19.1203 31.8434 12.0189 29.8959 8.67118 35.8036L8.04797 35.5227L8.67243 35.8051C8.55412 36.0138 8.32251 36.1377 8.07839 36.1473C7.61931 36.1961 3.58053 36.6942 2.19457 39.2496H43.6037L43.6043 39.2499ZM42.9098 35.0546C44.3379 36.4627 44.904 38.2816 45.1098 39.7696C45.1165 39.8039 45.1198 39.8388 45.1198 39.8749C45.1198 40.2202 44.8065 40.4999 44.4199 40.4999H1.21382C1.15341 40.5007 1.09218 40.4947 1.03094 40.4809C0.656022 40.3969 0.428571 40.0572 0.522717 39.7224L0.52355 39.7228C1.5471 36.0885 6.22905 35.1492 7.59752 34.9502C11.2143 28.999 18.1945 30.3356 19.8436 30.7504C28.9892 24.7333 34.745 31.2917 35.9448 32.8743C39.3374 32.7199 41.5157 33.6804 42.9097 35.0547L42.9098 35.0546Z" fill="#4BA26A" stroke="#4BA26A" stroke-linejoin="round"/>
<path d="M28.1236 14.4714C40.8218 15.446 42.2071 4.54099 42.3543 1.76292C39.2433 1.89424 27.0316 3.13195 28.1236 14.4714ZM43.0688 1.12483L43.7658 1.12222C43.7662 1.16873 44.0715 17.324 27.4608 15.6668C27.1197 15.6568 26.8289 15.425 26.7893 15.1129L27.4846 15.0422L26.7901 15.1107C24.9509 0.704148 41.8783 0.499389 43.0119 0.502246C43.0294 0.50113 43.0469 0.500385 43.0644 0.500013C43.451 0.497781 43.7663 0.775678 43.7692 1.12054L43.0688 1.12483Z" fill="#4BA26A" stroke="#4BA26A" stroke-linejoin="round"/>
<path d="M22.1281 18.6253C5.51706 20.2819 5.82206 4.12732 5.82206 4.08066L6.51901 4.08326L5.81915 4.0788C5.82165 3.73356 6.13742 3.45566 6.52401 3.45827C6.54151 3.45827 6.559 3.45901 6.5765 3.4605C7.71003 3.45864 24.6379 3.66325 22.7983 18.0689L22.1038 18.0005L22.7991 18.0712C22.7591 18.3833 22.4687 18.6151 22.1276 18.6251L22.1281 18.6253ZM7.23404 4.72065C7.38151 7.49815 8.76706 18.4043 21.4647 17.4291C22.5561 6.08921 10.3438 4.85208 7.23404 4.72065Z" fill="#4BA26A" stroke="#4BA26A" stroke-linejoin="round"/>
<path d="M22.7306 17.7273C22.5615 17.4185 22.1441 17.2906 21.7983 17.4416C21.4525 17.5926 21.3092 17.9654 21.4784 18.2742C21.4871 18.2898 24.4998 23.7232 24.3799 29.1207C24.3724 29.4645 24.6781 29.7487 25.0635 29.7554C25.4484 29.7621 25.7667 29.489 25.7742 29.1449C25.9008 23.4445 22.7394 17.7441 22.7306 17.7269L22.7306 17.7273Z" fill="#4BA26A" stroke="#4BA26A" stroke-linejoin="round"/>
<path d="M28.0033 15.4581C28.2599 15.2018 28.2353 14.8086 27.9487 14.579C27.6617 14.3499 27.2213 14.3718 26.9643 14.6278C26.956 14.6363 23.9907 17.5388 23.6179 23.5779C23.5967 23.9216 23.8916 24.2159 24.2769 24.2345C24.6619 24.2535 24.9914 23.9901 25.0122 23.646C25.3575 18.0449 27.9954 15.4649 28.0028 15.4575L28.0033 15.4581Z" fill="#4BA26A" stroke="#4BA26A" stroke-linejoin="round"/>
<path d="M43.5637 1.56743C43.837 1.32339 43.837 0.927554 43.5637 0.683519C43.2904 0.439483 42.8472 0.439473 42.5739 0.683519L26.9888 14.6015C26.7156 14.8455 26.7156 15.2414 26.9888 15.4854C27.2621 15.7294 27.7054 15.7294 27.9786 15.4854L43.5637 1.56743Z" fill="#4BA26A" stroke="#4BA26A" stroke-linejoin="round"/>
<path d="M6.98656 3.61922C6.69954 3.38857 6.25796 3.4094 5.99968 3.66572C5.7414 3.92204 5.76473 4.31638 6.05175 4.54704C6.08925 4.57717 19.0923 15.0012 21.5195 18.3402C21.7295 18.6289 22.1615 18.7108 22.4848 18.5233C22.808 18.3358 22.8997 17.95 22.6897 17.6613C20.1573 14.1766 7.02571 3.65001 6.98732 3.61858L6.98656 3.61922Z" fill="#4BA26A" stroke="#4BA26A" stroke-linejoin="round"/>
</svg>
