<svg width="36" height="166" viewBox="0 0 36 166" fill="none" xmlns="http://www.w3.org/2000/svg">
<path fill-rule="evenodd" clip-rule="evenodd" d="M0 160.642C0 163.601 2.3989 166 5.35809 166C8.31729 166 10.7162 163.601 10.7162 160.642L10.7162 5.35801C10.7162 2.39882 8.31729 -9.16716e-05 5.35809 -9.16716e-05C2.3989 -9.16716e-05 0 2.39882 0 5.35801L0 160.642Z" fill="#CFA841"/>
<path fill-rule="evenodd" clip-rule="evenodd" d="M11.0156 159.932C11.0156 163.25 13.7054 165.94 17.0234 165.94C20.3414 165.94 23.0312 163.25 23.0312 159.932L23.0312 14.0451C23.0312 10.7271 20.3414 8.03734 17.0234 8.03734C13.7054 8.03734 11.0156 10.7271 11.0156 14.0451L11.0156 159.932Z" fill="#4BA26A"/>
<path fill-rule="evenodd" clip-rule="evenodd" d="M23.0312 159.932C23.0312 163.25 25.721 165.94 29.039 165.94C32.357 165.94 35.0468 163.25 35.0468 159.932L35.0468 31.2525C35.0468 27.9344 32.357 25.2447 29.039 25.2447C25.721 25.2447 23.0312 27.9344 23.0312 31.2525L23.0312 159.932Z" fill="#F6C602"/>
</svg>
