<svg width="220" height="200" viewBox="0 0 220 200" fill="none" xmlns="http://www.w3.org/2000/svg">
<g clip-path="url(#clip0_10_962)">
<path d="M21.1565 168.482L19.2189 161.556C15.7835 160.237 12.2688 159.094 8.69133 158.133L8.44677 161.352L7.45494 157.805C3.0183 156.656 0 156.15 0 156.15C0 156.15 4.07599 170.202 12.6279 180.945L22.5917 182.531L14.8511 183.543C15.9268 184.716 17.0829 185.827 18.3125 186.868C30.7516 197.334 44.6068 202.135 49.2585 197.593C53.9101 193.05 47.597 180.884 35.1579 170.42C31.3016 167.176 26.4574 164.572 21.6081 162.523L21.1565 168.482Z" fill="#4BA26A"/>
<path d="M39.583 160.959L41.8744 154.122C39.6864 151.383 37.3296 148.758 34.8153 146.26L32.7702 148.9L33.9434 145.4C30.8004 142.338 28.5052 140.491 28.5052 140.491C28.5052 140.491 23.9817 154.43 25.175 167.633L32.7997 173.659L25.5953 170.899C25.8473 172.407 26.2039 173.9 26.6627 175.368C31.343 190.154 40.4653 200.756 47.0377 199.047C53.6101 197.338 55.1442 183.965 50.4639 169.179C49.0131 164.595 46.3507 160.096 43.3684 156.07L39.583 160.959Z" fill="#4BA26A"/>
<path d="M153.515 47.3801H152.306V17.3698C152.306 15.0888 151.811 12.8301 150.847 10.7227C149.884 8.61528 148.473 6.70044 146.693 5.08751C144.914 3.47457 142.801 2.19511 140.476 1.3222C138.151 0.449283 135.659 0 133.142 0H62.9916C57.909 0 53.0346 1.83003 49.4406 5.08751C45.8467 8.34498 43.8276 12.7631 43.8276 17.3698V182.011C43.8276 184.293 44.3233 186.551 45.2864 188.659C46.2495 190.766 47.6611 192.681 49.4406 194.294C51.2202 195.907 53.3328 197.186 55.6579 198.059C57.983 198.932 60.475 199.381 62.9916 199.381H133.142C138.225 199.381 143.099 197.551 146.693 194.294C150.287 191.036 152.306 186.618 152.306 182.011V68.7421H153.515L153.515 47.3801Z" fill="#E6E6E6"/>
<path d="M133.915 4.51733H124.759C125.18 5.45314 125.341 6.46846 125.227 7.47383C125.113 8.47921 124.729 9.44378 124.107 10.2826C123.485 11.1214 122.645 11.8086 121.66 12.2838C120.676 12.759 119.578 13.0075 118.463 13.0075H78.2748C77.1598 13.0074 76.062 12.7589 75.0779 12.2836C74.0939 11.8084 73.2539 11.1211 72.632 10.2824C72.01 9.44357 71.6252 8.47903 71.5114 7.4737C71.3976 6.46837 71.5584 5.4531 71.9795 4.51733H63.427C59.6313 4.51733 55.9911 5.88398 53.3072 8.31663C50.6233 10.7493 49.1155 14.0487 49.1155 17.489V181.892C49.1155 185.332 50.6233 188.631 53.3072 191.064C55.9911 193.497 59.6313 194.863 63.427 194.863H133.915C137.711 194.863 141.351 193.497 144.035 191.064C146.719 188.631 148.227 185.332 148.227 181.892V17.4887C148.227 14.0484 146.719 10.7491 144.035 8.31654C141.351 5.88395 137.711 4.51733 133.915 4.51733Z" fill="white"/>
<path d="M89.6891 70.0071C89.6889 68.8579 90.0226 67.729 90.6567 66.7339C91.2909 65.7388 92.203 64.9126 93.3014 64.3386C92.2035 63.7639 90.9582 63.4613 89.6904 63.4612C88.4227 63.4611 87.1772 63.7634 86.0793 64.3379C84.9813 64.9123 84.0696 65.7386 83.4357 66.7337C82.8017 67.7288 82.468 68.8576 82.468 70.0067C82.468 71.1558 82.8017 72.2846 83.4357 73.2797C84.0696 74.2748 84.9813 75.1011 86.0793 75.6755C87.1772 76.25 88.4227 76.5523 89.6904 76.5522C90.9582 76.5521 92.2035 76.2495 93.3014 75.6748C92.2031 75.1009 91.291 74.2749 90.6568 73.2799C90.0227 72.2849 89.6889 71.1561 89.6891 70.0071Z" fill="#CCCCCC"/>
<path d="M98.7677 70.0071C98.7674 68.8579 99.1012 67.729 99.7353 66.7339C100.369 65.7388 101.282 64.9126 102.38 64.3386C101.282 63.7639 100.037 63.4613 98.7691 63.4612C97.5013 63.4611 96.2559 63.7634 95.1579 64.3379C94.06 64.9123 93.1482 65.7386 92.5143 66.7337C91.8804 67.7288 91.5466 68.8576 91.5466 70.0067C91.5466 71.1558 91.8804 72.2846 92.5143 73.2797C93.1482 74.2748 94.06 75.1011 95.1579 75.6755C96.2559 76.25 97.5013 76.5523 98.7691 76.5522C100.037 76.5521 101.282 76.2495 102.38 75.6748C101.282 75.1009 100.37 74.2749 99.7355 73.2799C99.1013 72.2849 98.7675 71.1561 98.7677 70.0071Z" fill="#CCCCCC"/>
<path d="M107.64 76.5522C111.628 76.5522 114.862 73.6217 114.862 70.0067C114.862 66.3917 111.628 63.4612 107.64 63.4612C103.652 63.4612 100.418 66.3917 100.418 70.0067C100.418 73.6217 103.652 76.5522 107.64 76.5522Z" fill="#4BA26A"/>
<path d="M119.709 90.4509H77.62C77.2193 90.4505 76.8352 90.306 76.5518 90.0492C76.2685 89.7924 76.1091 89.4442 76.1086 89.0811V50.9324C76.1091 50.5692 76.2685 50.221 76.5518 49.9642C76.8352 49.7074 77.2193 49.5629 77.62 49.5625H119.709C120.11 49.5629 120.494 49.7074 120.777 49.9642C121.061 50.221 121.22 50.5692 121.221 50.9324V89.0811C121.22 89.4442 121.061 89.7924 120.777 90.0492C120.494 90.306 120.11 90.4505 119.709 90.4509ZM77.62 50.1108C77.3796 50.111 77.1491 50.1976 76.9791 50.3517C76.8091 50.5058 76.7135 50.7147 76.7132 50.9326V89.0813C76.7135 89.2992 76.8091 89.5081 76.9791 89.6622C77.1491 89.8163 77.3796 89.903 77.62 89.9032H119.709C119.95 89.903 120.18 89.8163 120.35 89.6622C120.52 89.5081 120.616 89.2992 120.616 89.0813V50.9326C120.616 50.7147 120.52 50.5058 120.35 50.3517C120.18 50.1976 119.95 50.111 119.709 50.1108H77.62Z" fill="#CCCCCC"/>
<path d="M129.107 119.694H64.5549V120.242H129.107V119.694Z" fill="#CCCCCC"/>
<path d="M66.5935 116.272C67.7194 116.272 68.6321 115.445 68.6321 114.425C68.6321 113.404 67.7194 112.577 66.5935 112.577C65.4676 112.577 64.5549 113.404 64.5549 114.425C64.5549 115.445 65.4676 116.272 66.5935 116.272Z" fill="#4BA26A"/>
<path d="M129.107 138.17H64.5549V138.718H129.107V138.17Z" fill="#CCCCCC"/>
<path d="M66.5935 134.749C67.7194 134.749 68.6321 133.922 68.6321 132.901C68.6321 131.881 67.7194 131.053 66.5935 131.053C65.4676 131.053 64.5549 131.881 64.5549 132.901C64.5549 133.922 65.4676 134.749 66.5935 134.749Z" fill="#4BA26A"/>
<path d="M127.926 159.21H107.525C107.173 159.21 106.835 159.083 106.586 158.857C106.337 158.631 106.197 158.325 106.196 158.005V151.525C106.197 151.205 106.337 150.899 106.586 150.673C106.835 150.447 107.173 150.32 107.525 150.32H127.926C128.278 150.32 128.616 150.447 128.865 150.673C129.114 150.899 129.254 151.205 129.255 151.525V158.005C129.254 158.325 129.114 158.631 128.865 158.857C128.616 159.083 128.278 159.21 127.926 159.21Z" fill="#4BA26A"/>
<path d="M73.2433 116.272C74.3692 116.272 75.2819 115.445 75.2819 114.425C75.2819 113.404 74.3692 112.577 73.2433 112.577C72.1174 112.577 71.2047 113.404 71.2047 114.425C71.2047 115.445 72.1174 116.272 73.2433 116.272Z" fill="#4BA26A"/>
<path d="M79.8931 116.272C81.019 116.272 81.9317 115.445 81.9317 114.425C81.9317 113.404 81.019 112.577 79.8931 112.577C78.7672 112.577 77.8545 113.404 77.8545 114.425C77.8545 115.445 78.7672 116.272 79.8931 116.272Z" fill="#4BA26A"/>
<path d="M73.2433 134.749C74.3692 134.749 75.2819 133.922 75.2819 132.901C75.2819 131.881 74.3692 131.053 73.2433 131.053C72.1174 131.053 71.2047 131.881 71.2047 132.901C71.2047 133.922 72.1174 134.749 73.2433 134.749Z" fill="#4BA26A"/>
<path d="M79.8931 134.749C81.019 134.749 81.9317 133.922 81.9317 132.901C81.9317 131.881 81.019 131.053 79.8931 131.053C78.7672 131.053 77.8545 131.881 77.8545 132.901C77.8545 133.922 78.7672 134.749 79.8931 134.749Z" fill="#4BA26A"/>
<path d="M219.178 200H7.11235C6.65838 200 6.29065 199.854 6.29065 199.674C6.29065 199.494 6.65838 199.348 7.11235 199.348H219.178C219.632 199.348 220 199.494 220 199.674C220 199.854 219.632 200 219.178 200Z" fill="#B0ABAB"/>
<path d="M166.784 131.034C166.929 131.094 167.068 131.164 167.201 131.244L180.449 126.12L180.921 122.957L186.215 122.927L185.902 130.182L168.417 134.373C168.38 134.483 168.336 134.591 168.284 134.696C168.032 135.185 167.625 135.596 167.116 135.876C166.607 136.156 166.017 136.294 165.422 136.271C164.827 136.249 164.252 136.068 163.77 135.75C163.288 135.433 162.921 134.994 162.713 134.487C162.506 133.981 162.468 133.431 162.605 132.905C162.742 132.38 163.047 131.902 163.481 131.533C163.916 131.164 164.462 130.92 165.049 130.831C165.637 130.742 166.241 130.813 166.784 131.034Z" fill="#FFB8B8"/>
<path d="M188.14 196.773H184.519L182.796 184.113L188.14 184.113L188.14 196.773Z" fill="#FFB8B8"/>
<path d="M181.932 195.835H188.916V199.82H177.535C177.535 198.763 177.998 197.749 178.823 197.002C179.648 196.255 180.766 195.835 181.932 195.835Z" fill="#2F2E41"/>
<path d="M202.223 195.845L198.619 196.167L195.535 183.721L200.854 183.247L202.223 195.845Z" fill="#FFB8B8"/>
<path d="M195.944 195.463L202.894 194.843L203.325 198.809L191.999 199.82C191.942 199.299 191.999 198.773 192.167 198.273C192.335 197.772 192.609 197.306 192.976 196.901C193.342 196.497 193.793 196.161 194.302 195.915C194.811 195.668 195.369 195.515 195.944 195.463Z" fill="#2F2E41"/>
<path d="M189.148 109.529C193.154 109.529 196.402 106.586 196.402 102.954C196.402 99.3227 193.154 96.3789 189.148 96.3789C185.141 96.3789 181.893 99.3227 181.893 102.954C181.893 106.586 185.141 109.529 189.148 109.529Z" fill="#FFB8B8"/>
<path d="M183.71 194.212C183.398 194.213 183.097 194.114 182.858 193.933C182.62 193.752 182.459 193.5 182.406 193.223C180.531 183.792 174.405 152.958 174.258 152.104C174.255 152.084 174.254 152.064 174.254 152.044V149.745C174.253 149.661 174.282 149.58 174.336 149.512L175.146 148.484C175.184 148.435 175.234 148.394 175.293 148.365C175.352 148.336 175.417 148.32 175.483 148.317C180.097 148.121 195.209 147.546 195.939 148.373C196.672 149.204 196.413 151.721 196.354 152.217L196.357 152.269L203.146 191.621C203.199 191.935 203.113 192.255 202.908 192.512C202.703 192.77 202.394 192.943 202.048 192.996L197.808 193.629C197.492 193.675 197.169 193.617 196.896 193.465C196.624 193.313 196.421 193.077 196.324 192.801C195.012 189.003 190.615 176.225 189.09 171.281C189.081 171.249 189.059 171.222 189.029 171.204C188.999 171.187 188.963 171.179 188.928 171.184C188.892 171.188 188.86 171.204 188.836 171.229C188.813 171.254 188.8 171.285 188.801 171.318C188.877 176.031 189.061 188.056 189.124 192.209L189.131 192.656C189.134 192.959 189.012 193.252 188.788 193.477C188.564 193.702 188.255 193.842 187.923 193.871L183.834 194.207C183.792 194.211 183.751 194.212 183.71 194.212Z" fill="#2F2E41"/>
<path d="M184.544 112.115C183.278 112.797 182.52 114.051 182.086 115.326C181.281 117.688 180.796 120.129 180.643 122.597L180.183 129.986L174.496 149.574C179.425 153.354 182.269 152.495 188.904 149.403C195.539 146.311 196.298 150.434 196.298 150.434L197.625 133.767L199.52 115.554C199.095 115.089 198.613 114.67 198.084 114.303C196.332 113.068 194.293 112.209 192.122 111.792C189.951 111.375 187.703 111.41 185.549 111.894L184.544 112.115Z" fill="#4BA26A"/>
<path d="M182.697 134.99C182.85 135.042 182.998 135.105 183.14 135.178L196.239 129.236L196.456 126.017L201.859 125.679L202.149 133.018L184.644 138.265C184.501 138.82 184.175 139.323 183.709 139.707C183.243 140.09 182.659 140.336 182.035 140.412C181.411 140.487 180.776 140.389 180.216 140.129C179.655 139.87 179.195 139.462 178.896 138.96C178.597 138.457 178.474 137.885 178.544 137.318C178.613 136.75 178.871 136.216 179.283 135.785C179.696 135.354 180.244 135.047 180.853 134.905C181.463 134.763 182.106 134.793 182.697 134.99Z" fill="#FFB8B8"/>
<path d="M199.425 115.637C202.648 116.668 203.216 127.838 203.216 127.838C199.425 125.948 194.875 129.041 194.875 129.041C194.875 129.041 193.927 126.12 192.789 122.339C192.446 121.276 192.405 120.151 192.67 119.07C192.935 117.988 193.498 116.985 194.306 116.154C194.306 116.154 196.203 114.606 199.425 115.637Z" fill="#4BA26A"/>
<path d="M195.653 104.693C194.749 104.038 193.516 105.229 193.516 105.229L192.792 99.3303C192.792 99.3303 188.273 99.821 185.381 99.1666C182.488 98.5121 182.036 101.543 182.036 101.543C181.887 100.318 181.857 99.0848 181.946 97.8559C182.127 96.3813 184.477 94.9066 188.635 93.9234C192.792 92.9402 194.962 97.2005 194.962 97.2005C197.854 98.5111 196.556 105.348 195.653 104.693Z" fill="#2F2E41"/>
</g>
<defs>
<clipPath id="clip0_10_962">
<rect width="220" height="200" fill="white"/>
</clipPath>
</defs>
</svg>
