<svg width="41" height="41" viewBox="0 0 41 41" fill="none" xmlns="http://www.w3.org/2000/svg">
<path fill-rule="evenodd" clip-rule="evenodd" d="M16.1075 0C7.21801 0 0.000305176 7.21754 0.000305176 16.1072C0.000305176 24.9969 7.21784 32.2144 16.1075 32.2144C24.9972 32.2144 32.2147 24.9969 32.2147 16.1072C32.2147 7.21754 24.9972 0 16.1075 0ZM16.1075 2.92858C23.3806 2.92858 29.2861 8.83412 29.2861 16.1072C29.2861 23.3803 23.3806 29.2858 16.1075 29.2858C8.83442 29.2858 2.92889 23.3803 2.92889 16.1072C2.92889 8.83412 8.83442 2.92858 16.1075 2.92858Z" fill="#4BA26A"/>
<path fill-rule="evenodd" clip-rule="evenodd" d="M7.88073 14.643L10.4047 9.59548C10.6475 9.10945 11.1398 8.79829 11.683 8.78587C12.2255 8.7741 12.7306 9.06402 12.9943 9.53926L19.0848 20.5014L22.1729 15.3538C22.4373 14.9132 22.9139 14.6429 23.4287 14.6429H30.7501C31.5584 14.6429 32.2144 15.2988 32.2144 16.1071C32.2144 16.9154 31.5584 17.5714 30.7501 17.5714H24.2575L20.2916 24.182C20.0219 24.6308 19.5343 24.9017 19.0116 24.8929C18.488 24.8841 18.0101 24.5971 17.7558 24.1395L11.7823 13.3883L10.0954 16.762C9.84734 17.2582 9.34072 17.5716 8.78575 17.5716H1.46429C0.655986 17.5716 0 16.9156 0 16.1073C0 15.299 0.655986 14.643 1.46429 14.643H7.88073Z" fill="#4BA26A"/>
<path fill-rule="evenodd" clip-rule="evenodd" d="M29.7146 31.7853L38.5003 40.571C39.072 41.1427 39.9993 41.1427 40.5712 40.571C41.1429 39.9993 41.1429 39.0717 40.5712 38.5001L31.7855 29.7143C31.2135 29.1427 30.2862 29.1427 29.7146 29.7143C29.1426 30.286 29.1426 31.2136 29.7146 31.7853Z" fill="#4BA26A"/>
</svg>
