<svg width="32" height="49" viewBox="0 0 32 49" fill="none" xmlns="http://www.w3.org/2000/svg">
<path d="M16 3.04443C8.72948 11.3884 2 21.283 2 30.1517C2 39.0197 8.2724 46.2121 16 46.2121C23.7276 46.2121 30 39.0206 30 30.1517C30 21.2837 23.2706 11.3892 16 3.04443ZM7.10437 28.5111C7.44007 28.5038 7.76314 28.6417 7.98979 28.8895C8.21684 29.1377 8.32589 29.4714 8.28927 29.8055C8.03496 32.6334 9.76063 36.4469 11.68 37.8446C11.9331 38.0269 12.102 38.3024 12.15 38.6104C12.1984 38.9184 12.1211 39.2326 11.9363 39.4836C11.7512 39.7343 11.4733 39.9007 11.1649 39.9455C10.8568 39.9902 10.5431 39.9096 10.2945 39.7221C7.43158 37.6375 5.63137 33.3976 5.97398 29.5865C6.02036 28.9917 6.50781 28.5278 7.10437 28.5111Z" stroke="#4BA26A" stroke-width="4"/>
</svg>
