<svg width="22" height="22" viewBox="0 0 22 22" fill="none" xmlns="http://www.w3.org/2000/svg">
<path d="M7.20988 6.94795L7.47308 6.90786L7.58674 6.66709L10.2719 0.978921C10.574 0.33966 11.4251 0.340951 11.7283 0.979281C11.7283 0.979401 11.7284 0.979521 11.7285 0.979641L14.4133 6.66709L14.5269 6.90786L14.7901 6.94795L20.798 7.86307L20.7983 7.86313C21.4425 7.96074 21.7611 8.83859 21.2445 9.36407L21.2444 9.36421L16.8979 13.7894L16.72 13.9705L16.7612 14.2209L17.7892 20.4718C17.9141 21.2344 17.1654 21.7028 16.6153 21.4006L16.6153 21.4006L11.2407 18.449L11 18.3168L10.7593 18.449L5.38475 21.4006L5.38315 21.4015C4.83665 21.7042 4.08539 21.2377 4.21082 20.4718L5.2388 14.2209L5.27999 13.9705L5.10214 13.7894L0.755608 9.36421L0.75547 9.36407C0.23893 8.83859 0.557525 7.96074 1.20166 7.86313L1.20204 7.86307L7.20988 6.94795Z" stroke="#4BA26A"/>
</svg>
