<svg width="16" height="13" viewBox="0 0 16 13" fill="none" xmlns="http://www.w3.org/2000/svg">
<path d="M12.7386 0.134867L1.89221 0.000166113C1.5397 -0.00421168 1.31821 0.205816 1.39823 0.468589C1.47824 0.731362 1.8298 0.948506 2.18231 0.952884L11.4849 1.06841L0.100838 11.8633C-0.0920062 12.0462 -9.56119e-05 12.3481 0.305996 12.5371C0.612088 12.7262 1.01702 12.7312 1.20987 12.5483L12.594 1.75342L14.7054 8.68791C14.7855 8.95069 15.137 9.16783 15.4895 9.17221C15.6667 9.17441 15.8094 9.12248 15.8988 9.03768C15.9882 8.95287 16.0233 8.8345 15.9842 8.70312L13.5223 0.617816C13.4423 0.355044 13.0907 0.137899 12.7382 0.133521L12.7386 0.134867Z" fill="black"/>
</svg>
