<svg width="28" height="27" viewBox="0 0 28 27" fill="none" xmlns="http://www.w3.org/2000/svg">
<path d="M17.8114 21.8426V21.844C17.8113 21.8714 17.8161 21.8974 17.8242 21.9199L17.3537 22.0893L17.8242 21.9199C17.8323 21.9424 17.8428 21.9589 17.8524 21.9699L17.8114 21.8426ZM17.8114 21.8426V17.9995C17.8114 17.7164 17.7136 17.4336 17.523 17.2157L17.1467 17.5449L17.523 17.2157C17.3305 16.9956 17.054 16.8566 16.749 16.8566H14.4991C14.1941 16.8566 13.9176 16.9956 13.7251 17.2157L14.1014 17.5449M17.8114 21.8426L14.1014 17.5449M14.1014 17.5449L13.7251 17.2157C13.5345 17.4336 13.4367 17.7164 13.4367 17.9995V21.8454C13.4367 21.9031 13.4161 21.9473 13.3958 21.9706C13.3863 21.9815 13.3788 21.9859 13.3756 21.9875C13.3745 21.988 13.3738 21.9882 13.3734 21.9884L9.4385 22C9.43812 21.9999 9.43744 21.9996 9.43645 21.9992C9.43333 21.9977 9.42581 21.9933 9.41633 21.9825L9.04001 22.3117L9.41632 21.9825C9.39599 21.9592 9.37527 21.915 9.37527 21.8571V15.4875L15.6255 9.60319L21.8742 15.4831V21.8571C21.8742 21.915 21.8535 21.9592 21.8332 21.9825L22.2095 22.3117L21.8332 21.9825C21.8237 21.9933 21.8162 21.9977 21.813 21.9992C21.8121 21.9996 21.8114 21.9999 21.811 22L17.8755 21.9875H17.8747M14.1014 17.5449L17.8747 21.9875M17.8747 21.9875C17.8743 21.9874 17.8736 21.9872 17.8726 21.9867L17.6582 22.4384L17.8747 21.9875ZM22.3126 10.9119L25.2481 13.6778C25.2487 13.6797 25.2495 13.6827 25.2498 13.6867L25.2498 13.6867C25.2503 13.6927 25.2497 13.6985 25.2486 13.7028C25.2481 13.7047 25.2476 13.7059 25.2474 13.7064L24.4175 14.8596L16.2371 7.15812L16.2371 7.1581L16.2332 7.15445C16.0706 7.00467 15.8567 6.9137 15.6254 6.9137C15.3942 6.9137 15.1803 7.00467 15.0177 7.15445L15.0177 7.15443L15.0138 7.15813L6.83406 14.8593L6.00269 13.704L6.00264 13.7039C6.00241 13.7034 6.00195 13.7023 6.00147 13.7005C6.00032 13.6962 5.99967 13.6905 6.00017 13.6845C6.00051 13.6804 6.00127 13.6773 6.00192 13.6753L14.8941 5.3042C14.8941 5.30416 14.8942 5.30411 14.8942 5.30406C15.1096 5.10152 15.3681 5.00057 15.6237 5.00057C15.8794 5.00057 16.1379 5.10157 16.3533 5.3042L16.3533 5.30424L19.5006 8.26412L20.3432 9.05649V7.89989V5H22.1555V10.548V10.7638L22.3126 10.9119Z" fill="#4BA26A" stroke="#4BA26A"/>
</svg>
