<svg width="35" height="187" viewBox="0 0 35 187" fill="none" xmlns="http://www.w3.org/2000/svg">
<path fill-rule="evenodd" clip-rule="evenodd" d="M0 181.002C0 183.764 2.23858 186.002 5 186.002C7.76142 186.002 10 183.764 10 181.002L10 5.00003C10 2.2386 7.76142 3.05176e-05 5 3.05176e-05C2.23858 3.05176e-05 0 2.2386 0 5.00003L0 181.002Z" fill="#CFA841"/>
<path fill-rule="evenodd" clip-rule="evenodd" d="M22 91.9251C22 88.6113 19.3137 85.925 16 85.925C12.6863 85.925 10 88.6113 10 91.925V180.002C10 183.316 12.6863 186.002 16 186.002C19.3137 186.002 22 183.316 22 180.002V91.9251Z" fill="#4BA26A"/>
<path fill-rule="evenodd" clip-rule="evenodd" d="M22 179.502C22 183.092 24.9101 186.002 28.5 186.002C32.0899 186.002 35 183.092 35 179.502L35 116.686C35 113.096 32.0899 110.186 28.5 110.186C24.9101 110.186 22 113.096 22 116.686L22 179.502Z" fill="#F6C602"/>
</svg>
