<svg width="21" height="24" viewBox="0 0 21 24" fill="none" xmlns="http://www.w3.org/2000/svg">
<path fill-rule="evenodd" clip-rule="evenodd" d="M0.204245 5.5986V11.9612L0.204236 11.9612C0.204236 17.4099 4.3702 22.1311 10.2326 23.7752C10.318 23.7992 10.3854 23.8069 10.4756 23.7729C13.4087 22.9502 15.9376 21.3445 17.7204 19.2482C19.4646 17.1972 20.4963 14.6771 20.4963 11.9612V5.59506C20.4963 5.4493 20.367 5.32984 20.2031 5.31933C19.3906 5.21712 18.4596 4.97525 17.4615 4.60057C14.992 3.67353 12.4128 2.04546 10.5842 0.292379C10.4665 0.179335 10.266 0.17128 10.1202 0.289549C9.57996 0.804693 8.98881 1.30248 8.34222 1.78323C6.21818 3.36237 3.13504 4.98907 0.477711 5.32184C0.318933 5.34203 0.204245 5.45926 0.204245 5.5986ZM0.837862 5.83033C2.77202 5.53305 4.87885 4.62272 6.64949 3.58943C7.99454 2.80443 9.2674 1.88147 10.3503 0.883771C12.7098 3.05822 16.5527 5.32134 19.8627 5.83033V11.9612C19.8627 14.5557 18.8779 16.9622 17.213 18.9199C15.5207 20.9097 13.1267 22.4372 10.3503 23.2295C7.57392 22.4372 5.17989 20.9097 3.48765 18.9199C1.82259 16.962 0.837862 14.5557 0.837862 11.9612V5.83033Z" fill="#4BA26A"/>
<path d="M0.204245 11.9612L0.0747811 12.1192L0.408469 12.3927V11.9612H0.204245ZM0.204236 11.9612L0.3337 11.8033L1.24618e-05 11.5298V11.9612H0.204236ZM10.2326 23.7752L10.2878 23.5786L10.2877 23.5785L10.2326 23.7752ZM10.4756 23.7729L10.4205 23.5763L10.412 23.5787L10.4037 23.5818L10.4756 23.7729ZM17.7204 19.2482L17.5648 19.1159L17.7204 19.2482ZM20.2031 5.31933L20.1775 5.52234L20.19 5.52314L20.2031 5.31933ZM17.4615 4.60057L17.5333 4.40938L17.4615 4.60057ZM10.5842 0.292379L10.4428 0.439697L10.4429 0.439798L10.5842 0.292379ZM10.1202 0.289549L9.99153 0.130916L9.98515 0.136088L9.97921 0.141755L10.1202 0.289549ZM8.34222 1.78323L8.46407 1.94712L8.46408 1.94712L8.34222 1.78323ZM0.477711 5.32184L0.452335 5.1192L0.451947 5.11925L0.477711 5.32184ZM6.64949 3.58943L6.75242 3.76582L6.75243 3.76582L6.64949 3.58943ZM0.837862 5.83033L0.806837 5.62848L0.633638 5.6551V5.83033H0.837862ZM10.3503 0.883771L10.4887 0.733595L10.3503 0.606066L10.2119 0.733576L10.3503 0.883771ZM19.8627 5.83033H20.0669V5.65511L19.8937 5.62848L19.8627 5.83033ZM17.213 18.9199L17.3686 19.0522L17.213 18.9199ZM10.3503 23.2295L10.2942 23.4259L10.3503 23.4419L10.4063 23.4259L10.3503 23.2295ZM3.48765 18.9199L3.64322 18.7876L3.64322 18.7876L3.48765 18.9199ZM0.408469 11.9612V5.5986H2.19717e-05V11.9612H0.408469ZM0.0747716 12.1192L0.0747811 12.1192L0.33371 11.8033L0.3337 11.8033L0.0747716 12.1192ZM10.2877 23.5785C4.49275 21.9534 0.408459 17.2985 0.408459 11.9612H1.24618e-05C1.24618e-05 17.5214 4.24766 22.3089 10.1774 23.9718L10.2877 23.5785ZM10.4037 23.5818C10.3807 23.5904 10.3669 23.5918 10.3559 23.5916C10.3425 23.5913 10.3235 23.5886 10.2878 23.5786L10.1774 23.9718C10.2865 24.0024 10.4019 24.0188 10.5475 23.9641L10.4037 23.5818ZM17.5648 19.1159C15.8101 21.1792 13.3171 22.7638 10.4205 23.5763L10.5308 23.9696C13.5003 23.1366 16.0651 21.5098 17.8759 19.3805L17.5648 19.1159ZM20.2921 11.9612C20.2921 14.6236 19.2811 17.0977 17.5648 19.1159L17.8759 19.3805C19.6481 17.2966 20.7005 14.7307 20.7005 11.9612H20.2921ZM20.2921 5.59506V11.9612H20.7005V5.59506H20.2921ZM20.19 5.52314C20.2265 5.52548 20.2547 5.53972 20.2717 5.55563C20.2882 5.57107 20.2921 5.58519 20.2921 5.59506H20.7005C20.7005 5.31804 20.4624 5.1313 20.2161 5.11553L20.19 5.52314ZM17.3897 4.79177C18.399 5.17065 19.3458 5.41731 20.1776 5.52196L20.2286 5.11671C19.4355 5.01693 18.5201 4.77985 17.5333 4.40938L17.3897 4.79177ZM10.4429 0.439798C12.2916 2.21225 14.8946 3.85511 17.3897 4.79177L17.5333 4.40938C15.0893 3.49195 12.5339 1.87867 10.7255 0.14496L10.4429 0.439798ZM10.2488 0.448182C10.3219 0.388857 10.4059 0.404297 10.4428 0.439697L10.7256 0.145061C10.527 -0.0456266 10.2101 -0.0462976 9.99153 0.130916L10.2488 0.448182ZM8.46408 1.94712C9.11702 1.46164 9.71458 0.958512 10.2611 0.437343L9.97921 0.141755C9.44534 0.650874 8.8606 1.14332 8.22037 1.61934L8.46408 1.94712ZM0.503087 5.52448C3.20998 5.18551 6.32654 3.53629 8.46407 1.94712L8.22038 1.61934C6.10982 3.18846 3.06009 4.79264 0.452335 5.1192L0.503087 5.52448ZM0.408469 5.5986C0.408469 5.58168 0.426 5.53428 0.503475 5.52443L0.451947 5.11925C0.211866 5.14978 2.19717e-05 5.33685 2.19717e-05 5.5986H0.408469ZM6.54655 3.41305C4.78796 4.43931 2.70619 5.33655 0.806837 5.62848L0.868887 6.03219C2.83785 5.72956 4.96973 4.80614 6.75242 3.76582L6.54655 3.41305ZM10.2119 0.733576C9.14104 1.72019 7.88036 2.63461 6.54655 3.41305L6.75243 3.76582C8.10873 2.97425 9.39375 2.04274 10.4887 1.03397L10.2119 0.733576ZM19.8937 5.62848C16.6359 5.12751 12.8288 2.89016 10.4887 0.733595L10.2119 1.03395C12.5908 3.22628 16.4694 5.51516 19.8317 6.03219L19.8937 5.62848ZM20.0669 11.9612V5.83033H19.6585V11.9612H20.0669ZM17.3686 19.0522C19.0615 17.0616 20.0669 14.6092 20.0669 11.9612H19.6585C19.6585 14.5022 18.6944 16.8627 17.0574 18.7876L17.3686 19.0522ZM10.4063 23.4259C13.2189 22.6233 15.6485 21.0747 17.3686 19.0522L17.0574 18.7876C15.393 20.7447 13.0345 22.2512 10.2942 23.0331L10.4063 23.4259ZM3.33207 19.0522C5.05215 21.0747 7.48171 22.6233 10.2942 23.4259L10.4063 23.0332C7.66612 22.2512 5.30764 20.7447 3.64322 18.7876L3.33207 19.0522ZM0.633638 11.9612C0.633638 14.6092 1.63904 17.0615 3.33208 19.0522L3.64322 18.7876C2.00613 16.8626 1.04209 14.5022 1.04209 11.9612H0.633638ZM0.633638 5.83033V11.9612H1.04209V5.83033H0.633638Z" fill="#4BA26A"/>
<path fill-rule="evenodd" clip-rule="evenodd" d="M12.5758 9.40653L10.6387 6.35581L10.6387 6.35581C10.5323 6.15106 10.1999 6.13669 10.0732 6.33622L10.0741 6.33665L8.12477 9.40653L4.19404 10.073C3.92051 10.1121 3.83962 10.3814 4.00445 10.5356L4.00495 10.5352L6.74789 13.1017L6.25865 16.5766C6.22185 16.8051 6.48316 16.9608 6.70548 16.8704L6.70542 16.8703L10.3503 15.3866L13.9879 16.8673C14.2218 16.9657 14.4735 16.7996 14.4434 16.5861H14.4432L13.9527 13.1017L16.6813 10.5486C16.9308 10.3303 16.6586 10.0659 16.5249 10.0756L12.5758 9.40653ZM10.3503 7.03875L12.0951 9.78659L12.0942 9.78703C12.1446 9.86627 12.233 9.91547 12.3285 9.92696L15.8441 10.523L13.3893 12.82L13.3888 12.8195C13.3201 12.8838 13.2933 12.969 13.3073 13.0497L13.745 16.1585L10.4841 14.8311L10.4842 14.831C10.3936 14.7942 10.2932 14.798 10.21 14.8337L6.95558 16.1585L7.39438 13.0418H7.39456C7.40735 12.9511 7.36818 12.8653 7.2974 12.8069L4.85653 10.523L8.38869 9.92412C8.45985 9.9293 8.57148 9.84782 8.61819 9.76656L10.3503 7.03875Z" fill="#4BA26A"/>
<path d="M10.6387 6.35581L10.4576 6.26135L10.4031 6.36582L10.4663 6.46529L10.6387 6.35581ZM12.5758 9.40653L12.4034 9.51601L12.4521 9.59271L12.5417 9.60789L12.5758 9.40653ZM10.6387 6.35581L10.8197 6.45028L10.8689 6.356L10.8199 6.26164L10.6387 6.35581ZM10.0732 6.33622L9.90079 6.22676L9.77941 6.41796L9.9821 6.51899L10.0732 6.33622ZM10.0741 6.33665L10.2465 6.44612L10.3679 6.25492L10.1652 6.15388L10.0741 6.33665ZM8.12477 9.40653L8.15891 9.60788L8.24848 9.59269L8.29717 9.516L8.12477 9.40653ZM4.19404 10.073L4.22297 10.2752L4.22818 10.2743L4.19404 10.073ZM4.00445 10.5356L3.86494 10.6848L3.99968 10.8108L4.13871 10.6895L4.00445 10.5356ZM4.00495 10.5352L4.14448 10.3861L4.00974 10.26L3.87069 10.3813L4.00495 10.5352ZM6.74789 13.1017L6.95012 13.1302L6.96492 13.0251L6.88742 12.9526L6.74789 13.1017ZM6.25865 16.5766L6.46031 16.6091L6.46088 16.6051L6.25865 16.5766ZM6.70548 16.8704L6.78245 17.0595L6.99855 16.9716L6.8828 16.7691L6.70548 16.8704ZM6.70542 16.8703L6.62843 16.6811L6.41237 16.7691L6.52811 16.9716L6.70542 16.8703ZM10.3503 15.3866L10.4273 15.1974L10.3503 15.1661L10.2733 15.1974L10.3503 15.3866ZM13.9879 16.8673L14.0671 16.6791L14.0649 16.6782L13.9879 16.8673ZM14.4434 16.5861L14.6456 16.5576L14.6209 16.3818H14.4434V16.5861ZM14.4432 16.5861L14.241 16.6145L14.2657 16.7903H14.4432V16.5861ZM13.9527 13.1017L13.8131 12.9526L13.7356 13.0251L13.7504 13.1302L13.9527 13.1017ZM16.6813 10.5486L16.5468 10.3948L16.5418 10.3994L16.6813 10.5486ZM16.5249 10.0756L16.4907 10.277L16.5151 10.2811L16.5397 10.2793L16.5249 10.0756ZM12.0951 9.78659L12.1875 9.96871L12.388 9.86696L12.2675 9.67712L12.0951 9.78659ZM10.3503 7.03875L10.5227 6.92928L10.3503 6.65777L10.1779 6.92928L10.3503 7.03875ZM12.0942 9.78703L12.0018 9.60491L11.8013 9.70667L11.9219 9.89651L12.0942 9.78703ZM12.3285 9.92696L12.3627 9.72537L12.3529 9.72419L12.3285 9.92696ZM15.8441 10.523L15.9836 10.6722L16.2845 10.3906L15.8782 10.3217L15.8441 10.523ZM13.3893 12.82L13.255 12.9738L13.394 13.0952L13.5288 12.9691L13.3893 12.82ZM13.3888 12.8195L13.5231 12.6657L13.384 12.5442L13.2492 12.6704L13.3888 12.8195ZM13.3073 13.0497L13.5096 13.0212L13.5085 13.0148L13.3073 13.0497ZM13.745 16.1585L13.668 16.3477L13.9967 16.4815L13.9472 16.1301L13.745 16.1585ZM10.4841 14.8311L10.3068 14.7298L10.1911 14.9323L10.4071 15.0203L10.4841 14.8311ZM10.4842 14.831L10.6615 14.9323L10.7773 14.7298L10.5612 14.6419L10.4842 14.831ZM10.21 14.8337L10.2871 15.0229L10.2907 15.0214L10.21 14.8337ZM6.95558 16.1585L6.75335 16.1301L6.70388 16.4815L7.03258 16.3477L6.95558 16.1585ZM7.39438 13.0418V12.8376H7.21689L7.19215 13.0134L7.39438 13.0418ZM7.39456 13.0418V13.2461H7.57203L7.59679 13.0703L7.39456 13.0418ZM7.2974 12.8069L7.15759 12.9564L7.1675 12.9645L7.2974 12.8069ZM4.85653 10.523L4.82239 10.3217L4.41607 10.3906L4.717 10.6722L4.85653 10.523ZM8.38869 9.92412L8.4035 9.72044L8.37888 9.71865L8.35455 9.72278L8.38869 9.92412ZM8.61819 9.76656L8.44562 9.65698L8.44114 9.66478L8.61819 9.76656ZM10.4663 6.46529L12.4034 9.51601L12.7482 9.29706L10.8111 6.24634L10.4663 6.46529ZM10.4576 6.26134L10.4576 6.26135L10.8197 6.45028L10.8197 6.45028L10.4576 6.26134ZM10.2456 6.44567C10.2621 6.41967 10.3002 6.39638 10.3558 6.39848C10.412 6.40061 10.4454 6.42686 10.4574 6.44997L10.8199 6.26164C10.7255 6.08 10.5395 5.99669 10.3713 5.99033C10.2024 5.98394 10.0109 6.05323 9.90079 6.22676L10.2456 6.44567ZM10.1652 6.15388L10.1643 6.15344L9.9821 6.51899L9.98297 6.51943L10.1652 6.15388ZM8.29717 9.516L10.2465 6.44612L9.90167 6.22718L7.95237 9.29706L8.29717 9.516ZM4.22818 10.2743L8.15891 9.60788L8.09063 9.20518L4.1599 9.87163L4.22818 10.2743ZM4.14397 10.3865C4.12124 10.3652 4.12127 10.3459 4.12642 10.3319C4.13126 10.3189 4.15148 10.2854 4.22296 10.2751L4.16511 9.87082C3.96307 9.89972 3.80608 10.0205 3.7433 10.1904C3.68084 10.3594 3.72283 10.5518 3.86494 10.6848L4.14397 10.3865ZM3.87069 10.3813L3.87019 10.3817L4.13871 10.6895L4.13921 10.6891L3.87069 10.3813ZM6.88742 12.9526L4.14448 10.3861L3.86542 10.6843L6.60836 13.2508L6.88742 12.9526ZM6.46088 16.6051L6.95012 13.1302L6.54566 13.0732L6.05642 16.5481L6.46088 16.6051ZM6.62852 16.6812C6.58104 16.7005 6.52941 16.6929 6.49435 16.6707C6.46242 16.6504 6.45702 16.6292 6.46027 16.6091L6.05702 16.5441C6.02348 16.7524 6.13033 16.9234 6.27544 17.0155C6.41742 17.1056 6.6076 17.1307 6.78245 17.0595L6.62852 16.6812ZM6.52811 16.9716L6.52817 16.9717L6.8828 16.7691L6.88274 16.7689L6.52811 16.9716ZM10.2733 15.1974L6.62843 16.6811L6.78242 17.0594L10.4273 15.5758L10.2733 15.1974ZM14.0649 16.6782L10.4273 15.1974L10.2733 15.5758L13.9109 17.0565L14.0649 16.6782ZM14.2412 16.6145C14.2429 16.627 14.2396 16.6494 14.2054 16.6711C14.1716 16.6925 14.1204 16.7015 14.0671 16.6791L13.9087 17.0556C14.0893 17.1316 14.2809 17.1067 14.4238 17.0162C14.5664 16.926 14.6739 16.7586 14.6456 16.5576L14.2412 16.6145ZM14.4432 16.7903H14.4434V16.3818H14.4432V16.7903ZM13.7504 13.1302L14.241 16.6145L14.6454 16.5576L14.1549 13.0732L13.7504 13.1302ZM16.5418 10.3994L13.8131 12.9526L14.0922 13.2508L16.8209 10.6977L16.5418 10.3994ZM16.5397 10.2793C16.5219 10.2806 16.5127 10.2769 16.5144 10.2775C16.5151 10.2778 16.5201 10.2797 16.5279 10.2849C16.5444 10.2958 16.5605 10.3124 16.5703 10.3292C16.5796 10.3452 16.5787 10.353 16.5786 10.3539C16.5785 10.3546 16.5781 10.3575 16.5747 10.3633C16.5712 10.3694 16.5634 10.3804 16.5469 10.3949L16.8158 10.7023C16.9087 10.6209 16.9682 10.5209 16.9833 10.4085C16.9982 10.2987 16.9676 10.2001 16.9233 10.1239C16.8795 10.0486 16.8181 9.98724 16.7537 9.94452C16.6945 9.90524 16.6069 9.86485 16.51 9.87191L16.5397 10.2793ZM12.5417 9.60789L16.4907 10.277L16.559 9.87424L12.6099 9.20518L12.5417 9.60789ZM12.2675 9.67712L10.5227 6.92928L10.1779 7.14822L11.9227 9.89606L12.2675 9.67712ZM12.1867 9.96914L12.1875 9.96871L12.0027 9.60447L12.0018 9.60491L12.1867 9.96914ZM12.3529 9.72419C12.3082 9.71882 12.2791 9.69714 12.2666 9.67754L11.9219 9.89651C12.0101 10.0354 12.1578 10.1121 12.3042 10.1297L12.3529 9.72419ZM15.8782 10.3217L12.3627 9.72561L12.2944 10.1283L15.8099 10.7244L15.8782 10.3217ZM13.5288 12.9691L15.9836 10.6722L15.7045 10.3739L13.2498 12.6708L13.5288 12.9691ZM13.2545 12.9734L13.255 12.9738L13.5236 12.6661L13.5231 12.6657L13.2545 12.9734ZM13.5085 13.0148C13.5074 13.0084 13.5078 13.0017 13.5102 12.9948C13.5125 12.988 13.5175 12.9788 13.5284 12.9686L13.2492 12.6704C13.132 12.7801 13.08 12.9339 13.106 13.0845L13.5085 13.0148ZM13.9472 16.1301L13.5095 13.0212L13.105 13.0782L13.5428 16.187L13.9472 16.1301ZM10.4071 15.0203L13.668 16.3477L13.822 15.9694L10.5611 14.642L10.4071 15.0203ZM10.3069 14.7297L10.3068 14.7298L10.6614 14.9324L10.6615 14.9323L10.3069 14.7297ZM10.2907 15.0214C10.3258 15.0063 10.3694 15.0048 10.4072 15.0202L10.5612 14.6419C10.4179 14.5836 10.2607 14.5897 10.1294 14.6461L10.2907 15.0214ZM7.03258 16.3477L10.287 15.0229L10.133 14.6446L6.87859 15.9694L7.03258 16.3477ZM7.19215 13.0134L6.75335 16.1301L7.15781 16.187L7.5966 13.0703L7.19215 13.0134ZM7.39456 12.8376H7.39438V13.2461H7.39456V12.8376ZM7.1675 12.9645C7.17937 12.9743 7.18603 12.9843 7.18937 12.9921C7.19249 12.9995 7.19334 13.0062 7.19234 13.0134L7.59679 13.0703C7.62081 12.8999 7.54521 12.7466 7.4273 12.6494L7.1675 12.9645ZM4.717 10.6722L7.15787 12.9561L7.43693 12.6578L4.99607 10.3739L4.717 10.6722ZM8.35455 9.72278L4.82239 10.3217L4.89068 10.7244L8.42283 10.1255L8.35455 9.72278ZM8.44114 9.66478C8.43918 9.66819 8.43413 9.67552 8.425 9.68508C8.41612 9.69438 8.40575 9.70326 8.39541 9.71051C8.38473 9.71799 8.37723 9.72152 8.37449 9.72258C8.37332 9.72303 8.37485 9.72232 8.37894 9.72154C8.38291 9.72079 8.39144 9.71956 8.4035 9.72044L8.37389 10.1278C8.48086 10.1356 8.5753 10.0832 8.62981 10.045C8.69164 10.0017 8.75405 9.94001 8.79525 9.86834L8.44114 9.66478ZM10.1779 6.92928L8.44579 9.65709L8.7906 9.87603L10.5227 7.14822L10.1779 6.92928Z" fill="#4BA26A"/>
</svg>
