<svg width="24" height="23" viewBox="0 0 24 23" fill="none" xmlns="http://www.w3.org/2000/svg">
<path d="M0.49426 19.7536C0.221266 19.7536 0 19.9749 0 20.2478C0 20.5208 0.221285 20.7421 0.49426 20.7421H3.99295L3.18748 22.2754C3.06048 22.5169 3.15349 22.8157 3.39524 22.9427C3.63736 23.0706 3.93576 22.9771 4.06258 22.7349L6.58 17.943H7.35713L5.81672 22.3418C5.72645 22.5996 5.8624 22.8814 6.11987 22.9716C6.38135 23.0626 6.66072 22.923 6.74974 22.6685L8.40452 17.9429H9.2383L8.45439 22.42C8.40158 22.7215 8.63346 22.9994 8.94173 22.9994C9.15479 22.9994 9.38594 22.8315 9.42799 22.5903L10.242 17.9427H11.1052V22.5051C11.1052 22.7781 11.3265 22.9993 11.5995 22.9993C11.8725 22.9993 12.0937 22.7781 12.0937 22.5051V17.9427H12.9568L13.7708 22.5903C13.813 22.8318 14.0454 22.9994 14.2571 22.9994C14.5655 22.9994 14.797 22.7213 14.7444 22.42L13.9605 17.9429H14.7943L16.449 22.6685C16.538 22.9227 16.8171 23.0628 17.0789 22.9716C17.3364 22.8814 17.4723 22.5994 17.3821 22.3418L15.8417 17.943H16.619L19.1364 22.7349C19.2634 22.9771 19.5631 23.0704 19.8037 22.9427C20.0455 22.8157 20.1385 22.5169 20.0115 22.2754L19.206 20.7421L23.2302 20.7419C23.5032 20.7419 23.7245 20.5206 23.7245 20.2477C23.7245 19.9747 23.5032 19.7534 23.2302 19.7534H18.6871L17.736 17.9426L23.2301 17.9427C23.5031 17.9427 23.7243 17.7215 23.7243 17.4485C23.7243 17.1755 23.5031 16.9542 23.2301 16.9542H12.355L12.3505 15.2525C14.1906 15.6649 16.3685 15.6576 17.9087 14.5682C20.32 12.8618 20.4539 9.05673 20.4585 8.89581C20.4647 8.67599 20.3251 8.47846 20.1159 8.41124C19.9626 8.36226 16.3297 7.22297 13.9182 8.92888C13.2138 9.42735 12.708 10.1062 12.3387 10.8198L12.3321 8.42073C12.9307 7.9239 14.6352 6.33746 14.6504 4.36196C14.6683 2.01757 12.2925 0.178383 12.1914 0.101293C12.0166 -0.0319182 11.7746 -0.0341074 11.5976 0.0969071C11.4953 0.172375 9.09186 1.97515 9.07394 4.3194C9.05878 6.30987 10.7647 7.93196 11.3434 8.42458L11.3498 10.7529C10.9835 10.0642 10.4885 9.41184 9.80634 8.92908C7.39468 7.22312 3.76211 8.36246 3.60867 8.41143C3.39945 8.47868 3.25966 8.67621 3.26606 8.89601C3.27063 9.05699 3.40456 12.8619 5.81604 14.5684C7.35514 15.6574 9.52833 15.664 11.3621 15.2552L11.3667 16.9544H0.494424C0.22143 16.9544 0.000163813 17.1757 0.000163813 17.4487C0.000163813 17.7217 0.221449 17.9429 0.494424 17.9429H5.46369L4.51259 19.7538L0.49426 19.7536ZM14.4889 9.736C16.0933 8.5998 18.5188 9.03011 19.4404 9.25231C19.3436 10.1955 18.9423 12.6253 17.3374 13.7609C16.032 14.6843 14.185 14.5726 13.0449 14.3793L17.2351 11.3939C17.4576 11.2357 17.5092 10.9269 17.3509 10.7047C17.1923 10.4827 16.8837 10.4302 16.6617 10.5888L12.4779 13.5697C12.6744 12.4309 13.1831 10.6601 14.4888 9.73606L14.4889 9.736ZM10.0625 4.32702C10.0733 2.90958 11.3047 1.65424 11.8871 1.1393C12.4618 1.66135 13.6725 2.93134 13.6618 4.35424C13.6534 5.44039 12.9288 6.43003 12.3284 7.06575L12.32 3.94456C12.3193 3.67211 12.0982 3.45175 11.8257 3.45175H11.8243C11.5513 3.45248 11.3307 3.67431 11.3315 3.9475L11.3399 7.04512C10.752 6.40154 10.0544 5.40895 10.0626 4.32706L10.0625 4.32702ZM6.38698 13.7608C4.78192 12.6252 4.38042 10.1952 4.28378 9.25217C5.20526 9.02997 7.62969 8.60003 9.23527 9.73586C10.5366 10.6568 11.0467 12.4282 11.2447 13.5684L7.06264 10.5887C6.84008 10.4299 6.53199 10.482 6.37341 10.7045C6.21517 10.9267 6.2667 11.2356 6.48926 11.3938L10.6798 14.3793C9.53898 14.5728 7.69161 14.6847 6.38691 13.7608L6.38698 13.7608Z" fill="#4BA26A"/>
</svg>
