<svg width="13" height="13" viewBox="0 0 13 13" fill="none" xmlns="http://www.w3.org/2000/svg">
<path d="M9.61214 0.583817L0.876373 0.0011774C0.592461 -0.0177583 0.425455 0.189169 0.503903 0.462685C0.58235 0.736201 0.876884 0.973912 1.1608 0.992846L8.65317 1.49256L0.0694828 12.1281C-0.0759232 12.3083 0.0141909 12.6225 0.27063 12.8294C0.52707 13.0364 0.853205 13.0582 0.998611 12.878L9.5823 2.24243L11.6525 9.46044C11.731 9.73396 12.0255 9.97167 12.3094 9.9906C12.4521 10.0001 12.5641 9.95256 12.6316 9.86901C12.699 9.78545 12.7209 9.66515 12.6824 9.52844L10.2686 1.11258C10.1902 0.839062 9.89565 0.601351 9.61174 0.582415L9.61214 0.583817Z" fill="white"/>
</svg>
