<svg width="26" height="24" viewBox="0 0 26 24" fill="none" xmlns="http://www.w3.org/2000/svg">
<g clip-path="url(#clip0_10_1001)">
<path d="M13 2C7.01687 2 2.16663 6.47715 2.16663 12C2.16663 17.5228 7.01687 22 13 22C18.983 22 23.8333 17.5228 23.8333 12C23.8333 9.34784 22.6919 6.8043 20.6603 4.92893C18.6286 3.05357 15.8731 2 13 2ZM13 5C14.7949 5 16.25 6.34315 16.25 8C16.25 9.65685 14.7949 11 13 11C11.205 11 9.74996 9.65685 9.74996 8C9.74996 6.34315 11.205 5 13 5ZM19.0883 16.16C17.6577 17.9384 15.3996 18.9868 13 18.9868C10.6003 18.9868 8.34224 17.9384 6.91163 16.16C6.69411 15.8633 6.66518 15.4818 6.83579 15.16L7.06329 14.72C7.59941 13.671 8.74259 13.0012 9.99913 13H16.0008C17.2397 13.0015 18.3699 13.6531 18.915 14.68L19.1641 15.15C19.339 15.4745 19.31 15.8609 19.0883 16.16Z" fill="#333333"/>
</g>
<defs>
<clipPath id="clip0_10_1001">
<rect width="26" height="24" fill="white"/>
</clipPath>
</defs>
</svg>
