<svg width="35" height="146" viewBox="0 0 35 146" fill="none" xmlns="http://www.w3.org/2000/svg">
<path fill-rule="evenodd" clip-rule="evenodd" d="M0 140.067C0 143.105 2.46243 145.567 5.5 145.567C8.53757 145.567 11 143.105 11 140.067L11 25.7177C11 22.6801 8.53757 20.2177 5.5 20.2177C2.46243 20.2177 0 22.6801 0 25.7177L0 140.067Z" fill="#CFA841"/>
<path fill-rule="evenodd" clip-rule="evenodd" d="M23 6C23 2.68629 20.3137 0 17 0C13.6863 0 11 2.68629 11 6V138.556C11 141.87 13.6863 144.556 17 144.556C20.3137 144.556 23 141.87 23 138.556V6Z" fill="#4BA26A"/>
<path fill-rule="evenodd" clip-rule="evenodd" d="M35 26.2178C35 22.9041 32.3137 20.2178 29 20.2178C25.6863 20.2178 23 22.9041 23 26.2178V139.567C23 142.881 25.6863 145.567 29 145.567C32.3137 145.567 35 142.881 35 139.567V26.2178Z" fill="#F6C602"/>
</svg>
